<svg width="349" height="375" xmlns="http://www.w3.org/2000/svg" xml:space="preserve" enable-background="new 0 0 349 375" version="1.1">

 <g>
  <title>Layer 1</title>
  <path id="svg_2" d="m201.67609,45.00014c-0.00113,103.97449 -0.00219,207.44896 -0.0049,310.92344c-0.0002,7.96302 -0.00565,7.96412 -8.14482,7.96381c-11.83042,-0.00049 -23.66327,-0.14099 -35.48998,0.06763c-4.38855,0.07742 -6.2268,-1.11731 -6.22239,-5.89264c0.10443,-113.30531 0.10093,-226.61075 0.00537,-339.91606c-0.00376,-4.45378 1.63147,-5.82372 5.85608,-5.77164c12.82823,0.15816 25.66066,0.14979 38.48919,0.00476c4.11255,-0.0465 5.62483,1.58506 5.55042,5.62848c-0.16249,8.82799 -0.0434,17.66116 -0.03897,26.99222z" fill="#E92164"/>
  <path id="svg_3" d="m222.07194,275c-0.00103,-66.2842 -0.00309,-132.06839 -0.00173,-197.85258c0.00015,-7.4394 0.04492,-7.48681 7.53105,-7.49381c12.15756,-0.01138 24.31695,0.11423 36.47171,-0.07168c4.28793,-0.0656 5.83395,1.41259 5.82843,5.78694c-0.09445,75.11044 -0.0932,150.22105 -0.00376,225.33151c0.00535,4.47287 -1.40997,6.28897 -6.04492,6.21277c-12.65382,-0.20795 -25.31474,-0.18402 -37.96963,-0.0134c-4.35567,0.05875 -5.94998,-1.66269 -5.86328,-5.91995c0.17288,-8.49011 0.0518,-16.98618 0.05213,-25.9798z" fill="#E92064"/>
  <path id="svg_4" d="m131.9202,79.13354c-0.0028,73.5895 -0.00132,146.69744 -0.00159,219.80539c-0.00003,7.40363 -0.49527,7.89566 -7.95208,7.89756c-11.99036,0.00308 -23.98313,-0.13977 -35.96988,0.06784c-4.59847,0.07962 -6.06898,-1.66736 -6.06348,-6.17536c0.09164,-75.10621 0.09173,-150.21264 -0.01182,-225.31884c-0.00605,-4.38366 1.49063,-5.87538 5.79608,-5.80919c11.82095,0.18176 23.64667,0.05107 35.4705,0.04861c8.74269,-0.00182 8.74269,0.00138 8.73227,9.48399z" fill="#E91F64"/>
  <path id="svg_5" d="m341.77643,222.87149c-0.00171,1.81226 -0.08182,3.15082 0.00952,4.47758c0.24533,3.56301 -1.26117,5.17836 -4.93408,5.15475c-13.33139,-0.08576 -26.66373,-0.05472 -39.99558,-0.01984c-3.30658,0.00865 -4.73626,-1.32337 -4.72412,-4.80944c0.09177,-26.33026 0.10355,-52.66123 -0.00845,-78.99134c-0.01663,-3.91205 1.7474,-4.76635 5.18875,-4.73679c12.83093,0.1102 25.66742,0.22173 38.49325,-0.05801c4.64786,-0.10138 6.08512,1.46042 6.05439,6.01201c-0.16327,24.16308 -0.08109,48.32785 -0.08368,72.97108z" fill="#E92265"/>
  <path id="svg_6" d="m37.76357,232.47687c-7.13725,-0.04856 -13.80304,-0.22646 -20.46275,-0.09548c-3.76641,0.07409 -5.32391,-1.12991 -5.30152,-5.17225c0.14399,-25.99185 0.13798,-51.98516 0.01078,-77.97714c-0.01887,-3.85576 1.15028,-5.35758 5.11896,-5.30782c13.16087,0.16504 26.32603,0.15695 39.48736,0.01416c3.99099,-0.04328 5.20061,1.65297 5.18797,5.41136c-0.08688,25.82567 -0.10708,51.65204 0.01516,77.47742c0.01965,4.14993 -1.53202,5.65838 -5.59096,5.55162c-5.99199,-0.15761 -11.99352,0.04745 -18.465,0.09813z" fill="#E82165"/>
 </g>
</svg>