<svg width="28" height="30" viewBox="0 0 28 30" fill="none" xmlns="http://www.w3.org/2000/svg">
<path d="M16 28V2C16 0.895431 15.1046 0 14 0C12.8954 0 12 0.89543 12 2V28C12 29.1046 12.8954 30 14 30C15.1046 30 16 29.1046 16 28Z" fill="#26B258"/>
<path d="M22 24V6C22 4.89543 21.1046 4 20 4C18.8954 4 18 4.89543 18 6V24C18 25.1046 18.8954 26 20 26C21.1046 26 22 25.1046 22 24Z" fill="#26B258"/>
<path d="M28 18V12C28 10.8954 27.1046 10 26 10C24.8954 10 24 10.8954 24 12V18C24 19.1046 24.8954 20 26 20C27.1046 20 28 19.1046 28 18Z" fill="#26B258"/>
<path d="M4 18V12C4 10.8954 3.10457 10 2 10C0.895431 10 0 10.8954 0 12V18C0 19.1046 0.895431 20 2 20C3.10457 20 4 19.1046 4 18Z" fill="#26B258"/>
<path d="M10 24V6C10 4.89543 9.10457 4 8 4C6.89543 4 6 4.89543 6 6V24C6 25.1046 6.89543 26 8 26C9.10457 26 10 25.1046 10 24Z" fill="#26B258"/>
</svg>
