<svg width="48" height="48" viewBox="0 0 48 48" fill="none" xmlns="http://www.w3.org/2000/svg">
<path fill-rule="evenodd" clip-rule="evenodd" d="M24 4C26.6264 3.99999 29.2271 4.51729 31.6537 5.52238C34.0802 6.52747 36.285 8.00065 38.1421 9.85782C39.9993 11.715 41.4725 13.9198 42.4776 16.3463C43.4827 18.7728 44 21.3735 44 24C44 35.0457 35.0457 44 24 44C12.9543 44 4 35.0457 4 24C4 12.9543 12.9543 4 24 4ZM26 26H22C17.0486 26 12.7977 28.9988 10.9642 33.2795C13.8652 37.3474 18.6228 40 24 40C29.3771 40 34.1347 37.3474 37.0358 33.2793C35.2023 28.9988 30.9514 26 26 26ZM24 10C20.6863 10 18 12.6863 18 16C18 19.3137 20.6863 22 24 22C27.3137 22 30 19.3137 30 16C30 12.6863 27.3138 10 24 10Z" fill="#E8E8E8" fill-opacity="0.25"/>
</svg>
